<?xml version="1.0" encoding="UTF-8"?>
<svg version="1.1" xmlns="http://www.w3.org/2000/svg" width="3153" height="1807">
<path d="M0 0 C43.56092407 -1.68502142 84.72891189 13.21680082 116.671875 42.73828125 C127.85813114 53.60546633 136.48878849 65.69990474 143.75 79.4375 C144.40331299 80.66883667 144.40331299 80.66883667 145.06982422 81.92504883 C151.75352583 94.92675918 156.31096228 108.52776233 160.4375 122.5 C160.68545319 123.33060944 160.93340637 124.16121887 161.18887329 125.01699829 C166.31211926 142.19124857 170.9853159 159.48571233 175.65988159 176.7862854 C180.40154735 194.32266514 185.28799745 211.75152804 191 229 C191.3084082 229.94681641 191.61681641 230.89363281 191.93457031 231.86914062 C199.43022255 256.26513031 199.43022255 256.26513031 216.625 274 C223.0748082 276.75558971 223.0748082 276.75558971 235 276 C235 216.6 235 157.2 235 96 C236.32 96.66 237.64 97.32 239 98 C239 98.66 239 99.32 239 100 C239.58370361 100.28029053 240.16740723 100.56058105 240.76879883 100.84936523 C242.85388439 101.9246479 244.74738397 103.11275869 246.69921875 104.41015625 C250.90462523 107.05026535 255.11431294 108.85753254 259.8125 110.4375 C260.68124756 110.73116455 261.54999512 111.0248291 262.44506836 111.32739258 C272.91454644 114.62099162 283.73463459 116.23721834 294.5637207 117.87084961 C320.50285447 121.84118042 320.50285447 121.84118042 328.52734375 131.91796875 C332.71152413 138.18817529 334.25220592 144.45328557 334.24050903 151.9919281 C334.24307231 152.99320278 334.24307231 152.99320278 334.24568737 154.01470524 C334.24895861 156.23183962 334.23801813 158.4486654 334.22705078 160.66577148 C334.22648615 162.26284274 334.22680423 163.85991452 334.22793579 165.45698547 C334.22850829 169.77879299 334.21677058 174.1004889 334.20278788 178.42227054 C334.19026344 182.94394788 334.18910867 187.46562794 334.18673706 191.98731995 C334.18052733 200.54360913 334.16412336 209.09984705 334.14403808 217.65611368 C334.11747747 229.22255912 334.10670234 240.78901862 334.09503365 252.35548687 C334.07624241 270.57036296 334.03639334 288.78513088 334 307 C301.33 307 268.66 307 235 307 C235 303.7 235 300.4 235 297 C234.19820312 297.44730469 233.39640625 297.89460938 232.5703125 298.35546875 C210.87013686 309.89445103 185.88311931 313.71260399 162 307 C133.32181617 298.10658937 112.02597246 276.49459339 97.25 251.125 C92.99684191 242.99396247 89.49384629 234.48505528 86 226 C53.825 225.505 53.825 225.505 21 225 C31.31652135 253.00198652 42.88254912 281.69390253 63.890625 303.65234375 C65 305 65 305 65 307 C21.11 307 -22.78 307 -68 307 C-68 288.24214047 -68 288.24214047 -66.875 281 C-66.67596069 279.68999023 -66.67596069 279.68999023 -66.47290039 278.35351562 C-55.18151969 208.41501291 -15.95363695 134.39258358 29.59765625 80.703125 C30.16049316 80.03345703 30.72333008 79.36378906 31.30322266 78.67382812 C32.36169621 77.42782101 33.43735789 76.19613236 34.53271484 74.98242188 C36.89151385 72.20622884 37.98782515 70.51903321 38.07421875 66.8359375 C36.55992981 61.42854935 34.79427881 56.15154339 32.875 50.875 C32.26821411 49.2036499 32.26821411 49.2036499 31.64916992 47.49853516 C24.91919852 28.55438672 24.91919852 28.55438672 10.5 15.625 C6.8745198 14.11438325 4.05420893 13.67570149 0 13 C0 8.71 0 4.42 0 0 Z M43 83 C20.50457688 114.09773382 8.57040173 142.41932252 11.6875 181.5625 C11.75275879 182.41030029 11.81801758 183.25810059 11.88525391 184.1315918 C12.82832228 193.96605531 15.03805998 203.19029991 17 213 C38.45 213 59.9 213 82 213 C79.48579593 202.90847788 79.48579593 202.90847788 76.609375 192.94140625 C76.14977179 191.43227481 75.69039172 189.92307541 75.23120117 188.41381836 C74.87038956 187.23286087 74.87038956 187.23286087 74.50228882 186.02804565 C68.50604403 166.37599856 62.87752316 146.62594121 57.34082031 126.84008789 C54.36328211 116.21543218 51.33880532 105.6062651 48.17578125 95.03515625 C47.88640182 94.05292587 47.5970224 93.0706955 47.2988739 92.05870056 C47.02662491 91.15898026 46.75437592 90.25925995 46.47387695 89.33227539 C46.23683548 88.54107803 45.99979401 87.74988068 45.75556946 86.93470764 C45.07329203 84.80567149 45.07329203 84.80567149 43 83 Z " fill="#FFFEFE" transform="translate(1377,735)"/>
<path d="M0 0 C1.98 0.99 1.98 0.99 4 2 C4 2.66 4 3.32 4 4 C4.87555542 4.42043579 4.87555542 4.42043579 5.76879883 4.84936523 C7.85388439 5.9246479 9.74738397 7.11275869 11.69921875 8.41015625 C15.90462523 11.05026535 20.11431294 12.85753254 24.8125 14.4375 C25.68124756 14.73116455 26.54999512 15.0248291 27.44506836 15.32739258 C37.91454644 18.62099162 48.73463459 20.23721834 59.5637207 21.87084961 C85.50285447 25.84118042 85.50285447 25.84118042 93.52734375 35.91796875 C97.71152413 42.18817529 99.25220592 48.45328557 99.24050903 55.9919281 C99.24221788 56.65944456 99.24392673 57.32696101 99.24568737 58.01470524 C99.24895861 60.23183962 99.23801813 62.4486654 99.22705078 64.66577148 C99.22648615 66.26284274 99.22680423 67.85991452 99.22793579 69.45698547 C99.22850829 73.77879299 99.21677058 78.1004889 99.20278788 82.42227054 C99.19026344 86.94394788 99.18910867 91.46562794 99.18673706 95.98731995 C99.18052733 104.54360913 99.16412336 113.09984705 99.14403808 121.65611368 C99.11747747 133.22255912 99.10670234 144.78901862 99.09503365 156.35548687 C99.07624241 174.57036296 99.03639334 192.78513088 99 211 C66.33 211 33.66 211 0 211 C0 141.37 0 71.74 0 0 Z " fill="#FF0000" transform="translate(1612,831)"/>
<path d="M0 0 C12.02264506 9.40173892 18.53739799 22.0367415 20.62890625 36.98046875 C22.30974422 52.44492676 18.59140721 66.73919923 9 79 C-1.64221412 90.69352471 -16.29155429 97.01822214 -32 98 C-32.78375 98.05285156 -33.5675 98.10570312 -34.375 98.16015625 C-50.20277139 98.70188057 -65.53597616 94.51482722 -78.015625 84.60546875 C-89.00756926 74.1565397 -94.03127714 61.98248731 -95.34765625 47.05859375 C-95.70199363 32.03776996 -91.62443271 18.44958921 -82 6.75 C-61.12295076 -14.92867217 -24.45917568 -15.4822889 0 0 Z " fill="#FF0000" transform="translate(1699,744)"/>
<path d="M0 0 C1.58989746 0.00845947 1.58989746 0.00845947 3.21191406 0.01708984 C18.97379324 0.26223148 32.33534873 4.8109934 43.87109375 15.90234375 C55.22984334 28.04852832 58.58899101 41.75997691 58.3359375 58.01953125 C57.90460479 70.21666165 52.49642619 82.65659952 44.0859375 91.5078125 C30.89812376 103.64480443 14.6112642 107.83460729 -2.96484375 107.56640625 C-20.04238681 106.45747488 -34.40851824 101.28772936 -45.875 88.3125 C-56.01924423 75.83438637 -58.78773451 62.13323153 -57.875 46.3125 C-56.04193561 33.76066926 -50.42311199 21.82838367 -40.875 13.3125 C-40.215 13.3125 -39.555 13.3125 -38.875 13.3125 C-38.875 12.6525 -38.875 11.9925 -38.875 11.3125 C-26.83717352 2.6171686 -14.5810662 -0.08113471 0 0 Z " fill="#FFFFFF" transform="translate(1785.875,937.6875)"/>
</svg>
