<?xml version="1.0" encoding="UTF-8"?>
<svg version="1.1" xmlns="http://www.w3.org/2000/svg" width="2102" height="1205">
<path d="M0 0 C25.30055672 -1.22641837 52.7503888 6.0064869 72 23 C73.19302734 23.98033203 73.19302734 23.98033203 74.41015625 24.98046875 C95.96997464 43.27465777 104.21929725 69.71281307 111.49404907 96.09649658 C112.33132817 99.13073185 113.17836545 102.16209517 114.02807617 105.19287109 C115.92392344 111.95787989 117.81075385 118.72538822 119.69384766 125.49395752 C125.27891087 145.7090304 125.27891087 145.7090304 132.1875 165.5 C132.48438721 166.27746582 132.78127441 167.05493164 133.0871582 167.85595703 C135.49644309 173.72278631 138.72477103 179.15533081 144.37890625 182.33984375 C145.09949219 182.53707031 145.82007813 182.73429688 146.5625 182.9375 C147.28566406 183.15277344 148.00882813 183.36804688 148.75390625 183.58984375 C151.43923801 184.14969846 151.43923801 184.14969846 156 184 C156 123.61 156 63.22 156 1 C158.64 1 161.28 1 164 1 C164.15855469 1.86882812 164.31710937 2.73765625 164.48046875 3.6328125 C166.22327611 12.94794299 166.22327611 12.94794299 172 20 C178.90246223 23.47687418 185.90954611 24.90843007 193.5 26 C212.45564199 28.72597781 212.45564199 28.72597781 218 34.8125 C221.43396683 40.28538464 222.25054072 45.53083134 222.24050903 51.91600037 C222.24307231 52.90502439 222.24307231 52.90502439 222.24568737 53.9140287 C222.24895801 56.10352549 222.23801917 58.29270962 222.22705078 60.48217773 C222.22648614 62.05954481 222.22680426 63.63691241 222.22793579 65.21427917 C222.22850824 69.48236998 222.21677137 73.75034775 222.20278788 78.01841235 C222.19026257 82.48403518 222.1891086 86.94966077 222.18673706 91.41529846 C222.18052758 99.86534006 222.16412396 108.31532973 222.14403808 116.76534849 C222.12166252 126.38805321 222.11068148 136.01076045 222.10064721 145.63348472 C222.07975726 165.42235854 222.04308767 185.21116121 222 205 C200.22 205 178.44 205 156 205 C156 203.02 156 201.04 156 199 C155.36835937 199.32613281 154.73671875 199.65226563 154.0859375 199.98828125 C138.215028 207.74078604 121.89781533 209.17806555 105 204 C82.8944461 195.18167634 70.20783603 178.75337935 59.85693359 158.21899414 C59 156 59 156 58 150 C43.81 150.33 29.62 150.66 15 151 C19.47768769 163.36845668 19.47768769 163.36845668 24.875 175.25 C25.20741699 175.90419922 25.53983398 176.55839844 25.88232422 177.23242188 C30.37799459 185.89012434 35.91269204 193.8420639 41.96875 201.4765625 C43 203 43 203 43 205 C13.63 205 -15.74 205 -46 205 C-44.82821383 185.07963519 -44.82821383 185.07963519 -43.4375 178.9375 C-43.26677979 178.1655127 -43.09605957 177.39352539 -42.92016602 176.59814453 C-32.47293288 131.84451645 -7.92784665 82.02288591 23.94213867 48.6418457 C25.31928558 46.50445523 25.13328529 45.33807629 24.6875 42.875 C24.17235439 41.23437321 23.60325941 39.61031343 23 38 C22.6390625 36.96101562 22.278125 35.92203125 21.90625 34.8515625 C16.73368229 20.43418037 16.73368229 20.43418037 6 10 C2.73860648 9.04832621 2.73860648 9.04832621 0 9 C0 6.03 0 3.06 0 0 Z M29 56 C19.33646854 67.14453245 11.97186545 79.3692778 9 94 C8.81695313 94.87011719 8.63390625 95.74023438 8.4453125 96.63671875 C6.65853457 110.13159415 5.72047623 129.44095247 12 142 C26.19 142 40.38 142 55 142 C54.11699219 138.97585938 53.23398437 135.95171875 52.32421875 132.8359375 C44.85050346 107.23326071 37.40166027 81.62360257 30 56 C29.67 56 29.34 56 29 56 Z " fill="#FFFFFF" transform="translate(716,490)"/>
<path d="M0 0 C11.2298746 10.11741045 18.09301021 25.4440025 19.10717773 40.42358398 C19.18564679 43.37005938 19.19459232 46.30653421 19.16796875 49.25390625 C19.16410156 50.31150146 19.16023438 51.36909668 19.15625 52.45874023 C19.09226017 58.29292381 18.75875931 63.91997959 17.91796875 69.69140625 C16.96175996 76.30864821 16.62818295 82.81832001 16.54296875 89.50390625 C16.5171875 90.45531494 16.49140625 91.40672363 16.46484375 92.38696289 C16.44506293 99.46787722 17.54049579 106.76617074 22.36572266 112.28466797 C25.45136896 114.95682408 28.85047012 117.4773415 32.99609375 117.78125 C38.24503439 117.26202026 41.77356243 115.91690649 46.09375 112.8828125 C47.96567782 111.59611265 49.86826604 110.60172321 51.91796875 109.62890625 C53.98046875 111.37890625 53.98046875 111.37890625 55.91796875 113.62890625 C55.65800227 118.8960531 50.83735371 122.28601265 47.26171875 125.68359375 C31.20245264 140.20750247 9.74446853 149.42928335 -12.08203125 148.62890625 C-25.33045578 146.5859249 -34.97647282 142.17933535 -43.20703125 131.50390625 C-56.76644365 112.31850438 -53.26406005 85.55043956 -50.14453125 63.44140625 C-49.96108154 62.13937256 -49.77763184 60.83733887 -49.58862305 59.49584961 C-49.40984619 58.23264893 -49.23106934 56.96944824 -49.046875 55.66796875 C-46.7389362 39.30496652 -43.92927553 18.35839992 -52.734375 3.41796875 C-55.45921632 -0.19935683 -58.00852609 -1.07640606 -62.26953125 -2.24609375 C-68.41587167 -2.44761311 -73.99211349 -1.30426768 -78.58203125 2.94140625 C-81.24511493 7.71276452 -82.3304639 12.02265386 -82.35377502 17.46882629 C-82.36349335 18.61153992 -82.37321167 19.75425354 -82.38322449 20.93159485 C-82.38381363 22.17080185 -82.38440277 23.41000885 -82.38500977 24.68676758 C-82.39766876 26.66077042 -82.39766876 26.66077042 -82.4105835 28.6746521 C-82.42880818 31.52783037 -82.44088077 34.38094381 -82.44812202 37.23417091 C-82.45963101 41.74226081 -82.48509397 46.25020678 -82.51243591 50.75822449 C-82.55402059 57.88250249 -82.58647061 65.00678743 -82.61491007 72.13112897 C-82.66598486 84.90727027 -82.72793602 97.68335224 -82.80025047 110.45939082 C-82.82521484 114.94496192 -82.84462623 119.43051367 -82.85963261 123.91612875 C-82.86736068 126.02965969 -82.87728583 128.14316657 -82.88818359 130.25668335 C-82.90139339 132.83905903 -82.91096465 135.42145666 -82.91636658 138.00386047 C-82.92326508 139.13247498 -82.93016357 140.26108948 -82.93727112 141.42390442 C-82.94305349 142.904137 -82.94305349 142.904137 -82.94895267 144.41427326 C-83.08203125 146.62890625 -83.08203125 146.62890625 -84.08203125 147.62890625 C-105.86203125 147.62890625 -127.64203125 147.62890625 -150.08203125 147.62890625 C-150.08203125 93.83890625 -150.08203125 40.04890625 -150.08203125 -15.37109375 C-147.11203125 -15.37109375 -144.14203125 -15.37109375 -141.08203125 -15.37109375 C-140.93507813 -14.06785156 -140.93507813 -14.06785156 -140.78515625 -12.73828125 C-139.77290889 -4.93699557 -139.02228939 0.05804731 -133.08203125 5.44140625 C-125.77308535 9.78109288 -116.30280331 7.66462537 -108.5390625 5.73046875 C-98.63075781 2.57324624 -89.93082736 -3.02918987 -81.17578125 -8.51171875 C-55.17035403 -24.14124319 -23.21708989 -17.86156345 0 0 Z " fill="#FFFFFF" transform="translate(1343.08203125,547.37109375)"/>
<path d="M0 0 C2.97 0 5.94 0 9 0 C9.10957031 0.73605469 9.21914063 1.47210938 9.33203125 2.23046875 C10.17977114 7.44785981 10.88287229 11.60768368 14 16 C14 16.66 14 17.32 14 18 C15.6630584 18.67561748 17.33094605 19.33933281 19 20 C20.11375 20.47050781 21.2275 20.94101562 22.375 21.42578125 C29.12626381 23.95519099 36.35667638 24.78843316 43.4453125 25.9296875 C51.72508521 27.38969382 58.27551341 29.62369508 64 36 C66.60382336 42.36490155 67.1247036 48.86058764 67.12698364 55.68148804 C67.13121338 57.63742386 67.13121338 57.63742386 67.13552856 59.63287354 C67.13358472 61.06042495 67.13153658 62.48797622 67.12939453 63.91552734 C67.13075082 65.43215985 67.13253203 66.94879203 67.13470459 68.46542358 C67.13924954 72.56825941 67.13750209 76.67106999 67.1343255 80.77390623 C67.13178949 85.06823512 67.13414264 89.36256189 67.13571167 93.65689087 C67.13752856 100.86094551 67.13513842 108.06498989 67.13037109 115.26904297 C67.124917 123.60739599 67.12670136 131.94572461 67.1321975 140.28407705 C67.13672756 147.44256308 67.13738008 154.60104175 67.13475883 161.75952876 C67.13319705 166.03570813 67.13299984 170.31187601 67.13629532 174.58805466 C67.13917289 178.60175605 67.1372005 182.61542574 67.13140106 186.62912369 C67.13007338 188.10581154 67.13046773 189.58250203 67.13266373 191.05918884 C67.13537455 193.0662629 67.13138102 195.07334275 67.12698364 197.08041382 C67.1264181 198.76886697 67.1264181 198.76886697 67.12584114 200.49143028 C67 203 67 203 66 204 C44.22 204 22.44 204 0 204 C0 136.68 0 69.36 0 0 Z " fill="#FFFFFF" transform="translate(953,491)"/>
<path d="M0 0 C4 2 4 2 6.3984375 3.97265625 C15.66957596 11.19746235 29.07184515 12.32056548 40.31689453 14.12475586 C49.19222326 15.60823836 58.07990796 17.29245132 63.74942303 24.8809824 C67.65195727 31.49356118 67.28814725 40.12496281 67.24291992 47.57446289 C67.24481827 48.57893463 67.24671661 49.58340637 67.24867249 50.61831665 C67.25234579 53.90317859 67.24173087 57.18781434 67.23046875 60.47265625 C67.22927556 62.76525344 67.22882408 65.05785112 67.2290802 67.35044861 C67.22752165 72.13560074 67.21927556 76.92067739 67.20581055 81.70581055 C67.18873495 87.85302516 67.184999 94.00015767 67.18575573 100.14739323 C67.18548465 104.87152395 67.18001487 109.59563656 67.17275429 114.31976128 C67.16956431 116.58808696 67.16759945 118.8564147 67.16686058 121.12474251 C67.16470539 124.27989375 67.15598164 127.43495567 67.14526367 130.59008789 C67.14571686 131.53390823 67.14617004 132.47772858 67.14663696 133.45014954 C67.11448214 139.88551786 67.11448214 139.88551786 66 141 C44.22 141 22.44 141 0 141 C0 94.47 0 47.94 0 0 Z " fill="#FF0000" transform="translate(1110,554)"/>
<path d="M0 0 C7.88922732 6.54867502 12.23917574 14.87729822 13.23828125 25.09765625 C13.51222631 34.55596997 11.52427125 45.46672897 5 52.66015625 C-1.13430538 57.8692877 -7.1059053 61.85791954 -15 63.66015625 C-15.7940625 63.84191406 -16.588125 64.02367187 -17.40625 64.2109375 C-28.79421179 66.18325016 -41.31114509 64.17883369 -51 57.66015625 C-60.02154914 50.22772402 -63.86163422 41.99130604 -65.2578125 30.546875 C-65.75843108 21.41892954 -62.72670053 11.44393908 -56.81640625 4.4375 C-41.95336961 -10.10590144 -17.04482097 -12.38793239 0 0 Z " fill="#FFFFFF" transform="translate(1466,632.33984375)"/>
<path d="M0 0 C6.75088951 5.70403189 11.29280571 12.8898435 12.96484375 21.66015625 C13.84264658 33.76232313 12.81869775 43.44640958 4.83984375 53.03515625 C-3.49118898 61.65346597 -13.49765918 64.66274343 -25.22265625 65.03515625 C-37.52039375 64.86333157 -47.55146514 61.4424175 -56.16015625 52.59765625 C-63.13770556 44.37698034 -64.76255107 36.01693784 -64.40625 25.37109375 C-63.3218082 14.52667572 -59.35938945 6.77098241 -51.03515625 -0.33984375 C-36.21884283 -10.20964501 -14.50268089 -10.67376333 0 0 Z " fill="#FF0000" transform="translate(1169.03515625,496.33984375)"/>
</svg>
